<?xml version="1.0" encoding="UTF-8"?>
<svg width="220px" height="160px" viewBox="0 0 220 160" version="1.1" xmlns="http://www.w3.org/2000/svg" xmlns:xlink="http://www.w3.org/1999/xlink">
    <!-- Generator: Sketch 55 (78076) - https://sketchapp.com -->
    <title>graphics_logo_light</title>
    <desc>Created with Sketch.</desc>
    <g id="Symbols" stroke="none" stroke-width="1" fill="none" fill-rule="evenodd">
        <g id="Graphics-/-Logo-/-Light" fill="#FFFFFF">
            <path d="M121.3855,91.1785 L94.5115,91.1785 C93.8925,91.1785 93.3915,90.6775 93.3915,90.0585 C93.3915,89.4395 93.8925,88.9385 94.5115,88.9385 L121.3855,88.9385 C122.0035,88.9385 122.5055,89.4395 122.5055,90.0585 C122.5055,90.6775 122.0035,91.1785 121.3855,91.1785 M94.1256293,84.4428745 L89.7101,88.5827 C89.5451,88.7367 89.4511,88.9547 89.4511,89.1817 L89.4511,104.6287 C89.4511,106.3177 88.0781,107.6907 86.3901,107.6907 L83.9261,107.6907 C82.2381,107.6907 80.8651,106.3177 80.8651,104.6287 L80.8651,88.7627 C80.8651,88.6867 80.8561,88.6167 80.8361,88.5477 L73.0021,60.2457 C72.8461,59.6807 72.3541,59.6527 72.2051,59.6437 C72.0571,59.6447 71.5641,59.6927 71.4171,60.2577 L64.0941,88.5407 C64.0771,88.6077 64.0681,88.6767 64.0681,88.7467 L64.0681,109.2677 C64.0681,110.9557 62.6951,112.3287 61.0071,112.3287 L57.9081,112.3287 C56.2201,112.3287 54.8471,110.9557 54.8471,109.2677 L54.8471,97.1007 C54.8471,96.8777 54.7561,96.6617 54.5961,96.5087 L40.3681,82.8377 C40.2081,82.6847 40.0041,82.6077 39.7991,82.6077 C39.5921,82.6077 39.3851,82.6867 39.2241,82.8437 L24.9701,96.8187 C24.8121,96.9737 24.7251,97.1827 24.7251,97.4047 L24.7251,119.6527 C24.7251,120.1047 25.0931,120.4727 25.5461,120.4727 L194.5841,120.4727 C195.0371,120.4727 195.4051,120.1047 195.4051,119.6527 L195.4051,83.1757 C195.4051,82.9617 195.3231,82.7587 195.1741,82.6037 L181.2271,68.1697 C181.0741,68.0107 180.8671,67.9217 180.6441,67.9197 L180.6371,67.9197 C180.4191,67.9197 180.2131,68.0047 180.0571,68.1597 L166.3151,81.9007 C166.1621,82.0537 166.0751,82.2647 166.0751,82.4817 L166.0751,101.4977 C166.0751,103.1837 164.7021,104.5567 163.0141,104.5567 L160.0741,104.5567 C158.3861,104.5567 157.0131,103.1837 157.0131,101.4977 C157.0131,101.2837 156.9311,101.0817 156.7831,100.9267 L146.7721,90.5157 C146.6211,90.3577 146.4171,90.2687 146.1971,90.2647 C146.0201,90.2527 145.7701,90.3407 145.6131,90.4927 L135.3911,100.3157 C135.2311,100.4687 135.1401,100.6837 135.1401,100.9067 L135.1401,104.9607 C135.1401,106.6487 133.7671,108.0227 132.0791,108.0227 L129.1551,108.0227 C128.3331,108.0227 127.5611,107.7007 126.9821,107.1167 C126.4031,106.5327 126.0891,105.7577 126.0951,104.9357 L126.2301,89.1817 C126.2321,88.9537 126.1381,88.7327 125.9711,88.5767 L122.103237,84.951374 C121.737781,86.3585748 121.161797,87.7038831 120.39754,88.9385 L117.556519,88.9385 C120.144118,85.7260539 121.023114,81.2669775 119.4778,77.1322 C117.6668,72.2892 113.0558,69.2922 108.1648,69.2922 C106.7638,69.2922 105.3408,69.5382 103.9538,70.0562 C100.9398,71.1832 98.5428,73.4192 97.2058,76.3542 C95.8678,79.2902 95.7518,82.5662 96.8788,85.5802 C97.3455812,86.8290251 97.9985845,87.9550144 98.7945698,88.9385 L95.9477554,88.9385 C95.4552898,88.1413768 95.0377445,87.2902123 94.7028,86.3932 C94.4615848,85.7482814 94.2698311,85.0967781 94.1256293,84.4428745 Z M122.53417,82.28535 L127.5031,86.9427 C128.1261,87.5257 128.4781,88.3487 128.4701,89.2017 L128.3361,104.9557 C128.3341,105.1757 128.4181,105.3837 128.5731,105.5397 C128.7281,105.6967 128.9341,105.7827 129.1551,105.7827 L132.0791,105.7827 C132.5321,105.7827 132.9001,105.4137 132.9001,104.9607 L132.9001,100.9067 C132.9001,100.0767 133.2431,99.2727 133.8401,98.6997 L144.0601,88.8777 C144.6491,88.3117 145.4241,88.0017 146.2421,88.0247 C147.0591,88.0407 147.8211,88.3747 148.3871,88.9627 L158.3981,99.3747 C158.9501,99.9487 159.2541,100.7027 159.2541,101.4977 C159.2541,101.9487 159.6221,102.3157 160.0741,102.3157 L163.0141,102.3157 C163.4661,102.3157 163.8351,101.9487 163.8351,101.4977 L163.8351,82.4817 C163.8351,81.6747 164.1621,80.8857 164.7321,80.3157 L178.4731,66.5767 C179.0571,65.9917 179.8351,65.6787 180.6631,65.6797 C181.4911,65.6867 182.2631,66.0177 182.8391,66.6127 L196.7871,81.0487 C197.3411,81.6267 197.6451,82.3807 197.6451,83.1757 L197.6451,119.6527 C197.6451,121.3397 196.2721,122.7127 194.5841,122.7127 L25.5461,122.7127 C23.8581,122.7127 22.4851,121.3397 22.4851,119.6527 L22.4851,97.4047 C22.4851,96.5887 22.8191,95.7927 23.4011,95.2207 L37.6571,81.2437 C38.8481,80.0777 40.7201,80.0687 41.9201,81.2237 L56.1481,94.8927 C56.7441,95.4647 57.0871,96.2697 57.0871,97.1007 L57.0871,109.2677 C57.0871,109.7197 57.4551,110.0877 57.9081,110.0877 L61.0071,110.0877 C61.4601,110.0877 61.8281,109.7197 61.8281,109.2677 L61.8281,88.7467 C61.8281,88.4877 61.8611,88.2297 61.9251,87.9797 L69.2481,59.6967 C69.6011,58.3367 70.7811,57.4147 72.1861,57.4037 C73.6011,57.3737 74.7861,58.2947 75.1611,59.6477 L82.9941,87.9467 C83.0681,88.2077 83.1051,88.4837 83.1051,88.7627 L83.1051,104.6287 C83.1051,105.0827 83.4731,105.4507 83.9261,105.4507 L86.3901,105.4507 C86.8421,105.4507 87.2111,105.0827 87.2111,104.6287 L87.2111,89.1817 C87.2111,88.3377 87.5641,87.5237 88.1781,86.9477 L93.3511,82.0997 C93.4895894,81.9695004 93.6384822,81.8536278 93.7958072,81.7528359 C93.6356146,75.7806711 97.2383773,70.087552 103.1408,67.8802 C110.5708,65.1012 118.8748,68.8882 121.6538,76.3192 C122.389238,78.2861927 122.664635,80.3145102 122.53417,82.28535 Z M110.243,79.9202 C110.451,79.8432 110.671,79.7582 110.9,79.6672 C111.132,79.5762 111.319,79.5052 111.463,79.4512 C111.783,79.3312 112.014,79.1762 112.152,78.9872 C112.293,78.7992 112.379,78.6042 112.414,78.4042 C112.448,78.2052 112.447,78.0182 112.409,77.8452 C112.373,77.6732 112.338,77.5422 112.304,77.4532 C112.248,77.3022 112.164,77.1342 112.055,76.9512 C111.945,76.7692 111.805,76.6192 111.634,76.5002 C111.28,76.2392 110.804,76.2212 110.203,76.4452 L109.099,76.8602 L110.243,79.9202 Z M112.406,80.6582 C112.285,80.6482 112.179,80.6492 112.087,80.6612 C111.996,80.6732 111.928,80.6812 111.886,80.6882 C111.752,80.7482 111.571,80.8192 111.345,80.9042 C111.115,80.9902 110.9,81.0702 110.701,81.1452 L111.914,84.3862 C111.977,84.5632 111.973,84.7332 111.898,84.8972 C111.824,85.0622 111.701,85.1762 111.534,85.2392 C111.365,85.3022 111.199,85.2962 111.035,85.2212 C110.869,85.1462 110.756,85.0192 110.688,84.8442 L107.645,76.7042 C107.582,76.5372 107.59,76.3702 107.664,76.2052 C107.74,76.0402 107.862,75.9262 108.029,75.8632 L109.747,75.2212 C110.066,75.1022 110.359,75.0292 110.629,75.0012 C110.896,74.9742 111.139,74.9782 111.358,75.0152 C111.578,75.0522 111.774,75.1092 111.948,75.1852 C112.123,75.2612 112.272,75.3452 112.397,75.4342 C112.706,75.6482 112.949,75.9032 113.13,76.2012 C113.309,76.4982 113.442,76.7632 113.528,76.9952 C113.564,77.0912 113.601,77.2062 113.637,77.3382 C113.673,77.4712 113.7,77.6202 113.722,77.7862 C113.742,77.9512 113.748,78.1292 113.737,78.3202 C113.725,78.5112 113.694,78.7072 113.643,78.9102 C113.616,79.0112 113.581,79.1162 113.534,79.2232 C113.487,79.3322 113.428,79.4462 113.354,79.5652 C113.696,79.7292 113.979,79.9842 114.2,80.3302 C114.223,80.3672 114.244,80.4052 114.263,80.4432 C114.282,80.4812 114.303,80.5192 114.326,80.5562 C114.459,80.7892 114.593,81.0202 114.728,81.2472 C114.862,81.4752 115.001,81.6862 115.137,81.8812 C115.311,82.1542 115.441,82.3332 115.528,82.4182 C115.615,82.5062 115.666,82.5552 115.68,82.5672 C115.836,82.6652 115.931,82.8002 115.969,82.9722 C116.006,83.1462 115.975,83.3102 115.88,83.4652 C115.799,83.5952 115.695,83.6842 115.566,83.7322 C115.359,83.8092 115.164,83.7872 114.981,83.6632 C114.711,83.5002 114.435,83.2102 114.158,82.7942 C113.88,82.3792 113.556,81.8522 113.189,81.2132 C113.168,81.1762 113.145,81.1412 113.13,81.1062 C113.111,81.0712 113.092,81.0362 113.068,80.9982 C113.026,80.9322 112.959,80.8642 112.868,80.7932 C112.777,80.7222 112.625,80.6772 112.406,80.6582 Z M104.9075,87.7166 C104.7395,87.7796 104.5725,87.7736 104.4085,87.6976 C104.2435,87.6226 104.1285,87.4976 104.0625,87.3216 L101.0195,79.1816 C100.9565,79.0136 100.9625,78.8466 101.0375,78.6826 C101.1125,78.5176 101.2345,78.4036 101.4025,78.3406 C101.5785,78.2746 101.7475,78.2806 101.9075,78.3576 C102.0685,78.4336 102.1805,78.5556 102.2435,78.7236 L103.4595,81.9776 L104.9165,77.2736 C104.9705,77.0986 105.0745,76.9706 105.2325,76.8896 C105.3875,76.8076 105.5535,76.7946 105.7285,76.8466 C105.9045,76.8996 106.0355,77.0056 106.1215,77.1646 C106.2085,77.3236 106.2255,77.4916 106.1715,77.6656 L104.6965,82.4316 L109.0685,85.0116 C109.2305,85.1066 109.3325,85.2396 109.3745,85.4096 C109.4155,85.5826 109.3885,85.7496 109.2945,85.9116 C109.2195,86.0506 109.1085,86.1456 108.9655,86.2006 C108.7815,86.2686 108.5925,86.2516 108.4005,86.1516 L104.2895,83.7206 L104.2085,83.9826 L105.2855,86.8636 C105.3525,87.0406 105.3495,87.2096 105.2785,87.3726 C105.2075,87.5366 105.0835,87.6506 104.9075,87.7166 Z M110.1092,23.158 C109.6452,23.158 109.2692,22.782 109.2692,22.318 L109.2692,10.84 C109.2692,10.376 109.6452,10 110.1092,10 C110.5732,10 110.9492,10.376 110.9492,10.84 L110.9492,22.318 C110.9492,22.782 110.5732,23.158 110.1092,23.158 Z M110.1092,33.2361 C109.6452,33.2361 109.2692,32.8601 109.2692,32.3961 L109.2692,26.6571 C109.2692,26.1931 109.6452,25.8171 110.1092,25.8171 C110.5732,25.8171 110.9492,26.1931 110.9492,26.6571 L110.9492,32.3961 C110.9492,32.8601 110.5732,33.2361 110.1092,33.2361 Z M105.3567,32.7683 C104.8927,32.7683 104.5167,32.3923 104.5167,31.9283 L104.5167,20.4503 C104.5167,19.9863 104.8927,19.6103 105.3567,19.6103 C105.8207,19.6103 106.1967,19.9863 106.1967,20.4503 L106.1967,31.9283 C106.1967,32.3923 105.8207,32.7683 105.3567,32.7683 Z M108.722774,61.3229 C106.885184,61.3229 105.053014,60.9280982 103.328354,60.1421082 C100.166325,58.7011267 97.7559562,56.1191047 96.5435442,52.8721532 C94.0328936,46.1596186 97.4533049,38.6574803 104.166743,36.1468298 C110.879278,33.6361792 118.381416,37.057494 120.892066,43.770932 C123.401814,50.4834666 119.981402,57.9865083 113.268868,60.495352 C111.791749,61.0473518 110.255003,61.3229 108.722774,61.3229 Z M108.709286,37.3229 C107.432012,37.3229 106.134681,37.5471751 104.870171,38.0194291 C102.122345,39.0469007 99.9370307,41.0854335 98.7181048,43.7612357 C97.4982672,46.4379496 97.3925114,49.4246372 98.419983,52.1724627 C100.543303,57.8531863 106.893205,60.7459701 112.573017,58.6235621 C118.251917,56.4993307 121.145612,50.1494286 119.023204,44.4705284 C117.372139,40.0552268 113.168348,37.3229 108.709286,37.3229 Z M110.7498,48.7283 C110.9348,48.8153 111.1268,48.9063 111.3328,49.0003 C111.5388,49.0943 111.7058,49.1713 111.8338,49.2323 C112.1148,49.3663 112.3608,49.4193 112.5748,49.3913 C112.7868,49.3623 112.9708,49.2963 113.1238,49.1933 C113.2768,49.0893 113.3988,48.9693 113.4888,48.8343 C113.5788,48.7003 113.6428,48.5943 113.6798,48.5163 C113.7438,48.3833 113.8018,48.2223 113.8528,48.0343 C113.9018,47.8473 113.9108,47.6593 113.8818,47.4713 C113.8268,47.0733 113.5368,46.7483 113.0098,46.4963 L112.0348,46.0333 L110.7498,48.7283 Z M111.6398,50.6183 C111.5668,50.5323 111.4988,50.4633 111.4338,50.4103 C111.3678,50.3573 111.3188,50.3183 111.2858,50.2953 C111.1638,50.2443 111.0028,50.1713 110.8028,50.0763 C110.6008,49.9803 110.4118,49.8903 110.2358,49.8063 L108.8738,52.6613 C108.8008,52.8153 108.6858,52.9203 108.5298,52.9753 C108.3728,53.0313 108.2208,53.0233 108.0728,52.9533 C107.9248,52.8823 107.8228,52.7683 107.7688,52.6123 C107.7128,52.4573 107.7218,52.3013 107.7958,52.1463 L111.2158,44.9793 C111.2858,44.8313 111.3988,44.7293 111.5558,44.6743 C111.7108,44.6203 111.8628,44.6263 112.0128,44.6973 L113.5238,45.4183 C113.8058,45.5533 114.0398,45.6993 114.2278,45.8583 C114.4148,46.0173 114.5668,46.1813 114.6838,46.3473 C114.7978,46.5143 114.8848,46.6803 114.9458,46.8433 C115.0068,47.0063 115.0478,47.1573 115.0658,47.2973 C115.1218,47.6343 115.1078,47.9583 115.0258,48.2633 C114.9448,48.5713 114.8548,48.8273 114.7588,49.0313 C114.7178,49.1153 114.6648,49.2123 114.6018,49.3193 C114.5368,49.4283 114.4558,49.5413 114.3608,49.6603 C114.2668,49.7773 114.1508,49.8953 114.0208,50.0093 C113.8868,50.1233 113.7378,50.2263 113.5718,50.3203 C113.4888,50.3673 113.3968,50.4103 113.2968,50.4493 C113.1968,50.4873 113.0818,50.5213 112.9578,50.5473 C113.0678,50.8773 113.0798,51.2243 112.9928,51.5893 C112.9828,51.6273 112.9708,51.6653 112.9578,51.7023 C112.9448,51.7393 112.9348,51.7773 112.9238,51.8153 C112.8548,52.0503 112.7878,52.2843 112.7258,52.5183 C112.6598,52.7513 112.6078,52.9753 112.5658,53.1893 C112.4988,53.4773 112.4638,53.6763 112.4618,53.7883 C112.4608,53.9003 112.4598,53.9643 112.4608,53.9823 C112.4958,54.1453 112.4688,54.2943 112.3768,54.4293 C112.2868,54.5633 112.1608,54.6483 111.9958,54.6823 C111.8608,54.7123 111.7378,54.7013 111.6248,54.6473 C111.4408,54.5603 111.3318,54.4163 111.2968,54.2183 C111.2328,53.9363 111.2478,53.5723 111.3458,53.1253 C111.4408,52.6793 111.5828,52.1323 111.7708,51.4853 C111.7798,51.4473 111.7908,51.4113 111.8018,51.3773 C111.8138,51.3443 111.8248,51.3083 111.8348,51.2703 C111.8508,51.1993 111.8538,51.1123 111.8438,51.0083 C111.8318,50.9033 111.7638,50.7743 111.6398,50.6183 Z M102.2381,50.1692 C102.0901,50.0982 101.9881,49.9852 101.9331,49.8292 C101.8771,49.6732 101.8881,49.5172 101.9611,49.3632 L105.3801,42.1952 C105.4511,42.0482 105.5651,41.9472 105.7201,41.8912 C105.8771,41.8362 106.0281,41.8442 106.1761,41.9142 C106.3321,41.9882 106.4351,42.1022 106.4861,42.2572 C106.5381,42.4112 106.5291,42.5622 106.4581,42.7102 L105.0921,45.5752 L109.1091,43.5462 C109.2591,43.4712 109.4091,43.4582 109.5611,43.5092 C109.7161,43.5602 109.8291,43.6612 109.9051,43.8092 C109.9811,43.9582 109.9951,44.1112 109.9441,44.2692 C109.8951,44.4282 109.7971,44.5442 109.6471,44.6212 L105.5781,46.6762 L106.6581,51.1882 C106.6981,51.3552 106.6761,51.5062 106.5891,51.6422 C106.5031,51.7782 106.3771,51.8672 106.2101,51.9082 C106.0711,51.9452 105.9381,51.9352 105.8111,51.8732 C105.6491,51.7962 105.5401,51.6622 105.4841,51.4712 L104.4731,47.2262 L104.2491,47.3402 L103.0401,49.8772 C102.9651,50.0312 102.8521,50.1382 102.6991,50.1952 C102.5471,50.2522 102.3921,50.2432 102.2381,50.1692 Z M12.782,132.7796 L12.782,140.6446 L18.969,132.7796 L23.302,132.7796 L17.516,140.0186 C18.935,142.3896 19.754,143.7586 19.971,144.1266 L23.477,149.9626 L19.094,149.9626 L15.011,142.9996 L12.782,145.4786 L12.782,149.9626 L9,149.9626 L9,132.7796 L12.782,132.7796 Z M33.2581,140.219 C32.7481,139.685 32.0851,139.417 31.2661,139.417 C30.4481,139.417 29.7841,139.685 29.2751,140.219 C28.7661,140.753 28.5111,141.53 28.5111,142.548 L28.5111,144.577 C28.5111,145.596 28.7661,146.372 29.2751,146.906 C29.7841,147.441 30.4481,147.708 31.2661,147.708 C32.0851,147.708 32.7481,147.441 33.2581,146.906 C33.7671,146.372 34.0221,145.596 34.0221,144.577 L34.0221,142.548 C34.0221,141.53 33.7671,140.753 33.2581,140.219 Z M36.9151,147.282 C36.3721,148.234 35.6251,148.96 34.6731,149.461 C33.7211,149.962 32.6531,150.212 31.4671,150.212 L31.0661,150.212 C29.8801,150.212 28.8121,149.962 27.8601,149.461 C26.9081,148.96 26.1611,148.234 25.6181,147.282 C25.0751,146.33 24.8041,145.212 24.8041,143.926 L24.8041,143.199 C24.8041,141.913 25.0751,140.795 25.6181,139.843 C26.1611,138.891 26.9081,138.165 27.8601,137.664 C28.8121,137.163 29.8801,136.912 31.0661,136.912 L31.4671,136.912 C32.6531,136.912 33.7211,137.163 34.6731,137.664 C35.6251,138.165 36.3721,138.891 36.9151,139.843 C37.4571,140.795 37.7291,141.913 37.7291,143.199 L37.7291,143.926 C37.7291,145.212 37.4571,146.33 36.9151,147.282 Z M49.5765,137.4387 C50.2275,137.7897 50.7285,138.2987 51.0795,138.9657 C51.9475,137.5967 53.1915,136.9127 54.8115,136.9127 C56.0135,136.9127 57.0115,137.2757 57.8045,138.0017 C58.5975,138.7287 58.9935,139.7347 58.9935,141.0197 L58.9935,149.9617 L55.3375,149.9617 L55.3375,141.7467 C55.3375,141.0447 55.1865,140.5067 54.8865,140.1307 C54.5855,139.7547 54.1685,139.5677 53.6345,139.5677 C53.0495,139.5677 52.5565,139.8017 52.1565,140.2687 C51.7555,140.7367 51.5555,141.3207 51.5555,142.0217 L51.5555,149.9617 L47.8985,149.9617 L47.8985,141.7467 C47.8985,141.0617 47.7435,140.5277 47.4345,140.1437 C47.1255,139.7597 46.7035,139.5677 46.1695,139.5677 C45.5855,139.5677 45.0975,139.8017 44.7045,140.2687 C44.3125,140.7367 44.1165,141.3207 44.1165,142.0217 L44.1165,149.9617 L40.4595,149.9617 L40.4595,137.1637 L43.2145,137.1637 C43.3145,137.5807 43.4485,138.2067 43.6155,139.0417 C44.0655,138.3237 44.6125,137.7897 45.2555,137.4387 C45.8985,137.0877 46.6035,136.9127 47.3725,136.9127 C48.1905,136.9127 48.9255,137.0877 49.5765,137.4387 Z M71.3675,137.4387 C72.0185,137.7897 72.5195,138.2987 72.8705,138.9657 C73.7385,137.5967 74.9825,136.9127 76.6025,136.9127 C77.8045,136.9127 78.8025,137.2757 79.5955,138.0017 C80.3885,138.7287 80.7845,139.7347 80.7845,141.0197 L80.7845,149.9617 L77.1285,149.9617 L77.1285,141.7467 C77.1285,141.0447 76.9775,140.5067 76.6775,140.1307 C76.3765,139.7547 75.9595,139.5677 75.4255,139.5677 C74.8405,139.5677 74.3475,139.8017 73.9475,140.2687 C73.5465,140.7367 73.3465,141.3207 73.3465,142.0217 L73.3465,149.9617 L69.6895,149.9617 L69.6895,141.7467 C69.6895,141.0617 69.5345,140.5277 69.2255,140.1437 C68.9165,139.7597 68.4945,139.5677 67.9605,139.5677 C67.3765,139.5677 66.8885,139.8017 66.4955,140.2687 C66.1035,140.7367 65.9075,141.3207 65.9075,142.0217 L65.9075,149.9617 L62.2505,149.9617 L62.2505,137.1637 L65.0055,137.1637 C65.1055,137.5807 65.2395,138.2067 65.4065,139.0417 C65.8565,138.3237 66.4035,137.7897 67.0465,137.4387 C67.6895,137.0877 68.3945,136.9127 69.1635,136.9127 C69.9815,136.9127 70.7165,137.0877 71.3675,137.4387 Z M95.9134,147.5198 C96.0634,147.6458 96.2304,147.7078 96.4144,147.7078 C96.5814,147.7078 96.7654,147.6748 96.9654,147.6078 C97.1654,147.5408 97.3244,147.4828 97.4414,147.4318 L97.4414,149.6868 C96.8234,150.0378 96.0894,150.2118 95.2374,150.2118 C93.5674,150.2118 92.5994,149.6038 92.3314,148.3838 C91.2794,149.6038 89.9944,150.2118 88.4744,150.2118 C87.1724,150.2118 86.0994,149.8618 85.2564,149.1608 C84.4124,148.4588 83.9914,147.4408 83.9914,146.1048 L83.9914,137.1638 L87.6474,137.1638 L87.6474,145.3028 C87.6474,145.9548 87.8354,146.4938 88.2114,146.9188 C88.5874,147.3448 89.0674,147.5578 89.6514,147.5578 C90.3034,147.5578 90.8624,147.3118 91.3304,146.8188 C91.7974,146.3268 92.0314,145.7288 92.0314,145.0278 L92.0314,137.1638 L95.6884,137.1638 L95.6884,146.9568 C95.6884,147.2078 95.7634,147.3948 95.9134,147.5198 Z M102.5013,139.0413 C103.5533,137.6223 104.9143,136.9123 106.5843,136.9123 C107.8863,136.9123 108.9593,137.2633 109.8023,137.9643 C110.6463,138.6663 111.0683,139.6853 111.0683,141.0203 L111.0683,149.9623 L107.4103,149.9623 L107.4103,141.8213 C107.4103,141.1703 107.2223,140.6323 106.8473,140.2063 C106.4713,139.7803 105.9913,139.5673 105.4063,139.5673 C104.7553,139.5673 104.1953,139.8133 103.7283,140.3063 C103.2603,140.7993 103.0273,141.3953 103.0273,142.0973 L103.0273,149.9623 L99.3703,149.9623 L99.3703,137.1633 L102.1003,137.1633 L102.5013,139.0413 Z M118.243,140.1936 C117.783,140.7116 117.52,141.3716 117.454,142.1726 L122.514,142.1726 C122.514,141.3206 122.317,140.6486 121.925,140.1566 C121.532,139.6636 120.902,139.4176 120.034,139.4176 C119.299,139.4176 118.702,139.6756 118.243,140.1936 Z M125.393,147.9966 C124.859,148.7566 124.154,149.3156 123.277,149.6736 C122.4,150.0336 121.444,150.2126 120.409,150.2126 L120.009,150.2126 C118.823,150.2126 117.755,149.9626 116.803,149.4616 C115.85,148.9606 115.103,148.2386 114.56,147.2946 C114.018,146.3516 113.747,145.2276 113.747,143.9256 L113.747,143.1996 C113.747,141.9136 114.022,140.7956 114.573,139.8426 C115.125,138.8906 115.872,138.1656 116.815,137.6646 C117.759,137.1636 118.823,136.9126 120.009,136.9126 L120.409,136.9126 C121.444,136.9126 122.404,137.1256 123.29,137.5506 C124.175,137.9766 124.885,138.5946 125.419,139.4046 C125.953,140.2146 126.221,141.1706 126.221,142.2726 L126.221,144.1756 L117.454,144.1756 L117.454,144.7776 C117.454,145.6126 117.7,146.3096 118.193,146.8686 C118.685,147.4276 119.357,147.7086 120.209,147.7086 C120.976,147.7086 121.582,147.4956 122.025,147.0696 C122.468,146.6436 122.688,146.0126 122.688,145.1776 L126.195,145.1776 C126.195,146.2976 125.928,147.2366 125.393,147.9966 Z M137.0662,149.9622 L134.0352,145.7792 L132.6072,147.1562 L132.6072,149.9622 L128.9512,149.9622 L128.9512,131.9282 L132.6072,131.9282 L132.6072,143.1242 L137.0912,137.1632 L141.2242,137.1632 L136.5152,143.1742 L141.4242,149.9622 L137.0662,149.9622 Z M147.323,144.6897 C146.546,144.9997 146.158,145.5037 146.158,146.2057 C146.158,146.7557 146.312,147.1447 146.621,147.3697 C146.93,147.5947 147.401,147.7087 148.037,147.7087 C148.47,147.7087 148.904,147.5907 149.339,147.3577 C149.773,147.1237 150.136,146.7897 150.428,146.3557 C150.72,145.9207 150.867,145.4367 150.867,144.9027 L150.867,144.2257 C149.28,144.2257 148.099,144.3807 147.323,144.6897 Z M150.328,139.9437 C149.969,139.5927 149.389,139.4177 148.588,139.4177 C148.12,139.4177 147.719,139.4967 147.385,139.6557 C147.051,139.8137 146.797,140.0097 146.621,140.2437 C146.446,140.4777 146.358,140.6947 146.358,140.8947 L146.358,141.0947 L142.827,141.0947 C142.793,140.8947 142.776,140.7447 142.776,140.6447 C142.776,139.9267 143.014,139.2837 143.49,138.7157 C143.967,138.1487 144.63,137.7057 145.481,137.3877 C146.333,137.0717 147.31,136.9127 148.412,136.9127 L148.938,136.9127 C150.742,136.9127 152.11,137.2677 153.046,137.9767 C153.981,138.6867 154.449,139.6597 154.449,140.8947 L154.449,146.8057 C154.449,147.1067 154.519,147.3327 154.662,147.4827 C154.803,147.6327 154.974,147.7087 155.175,147.7087 C155.342,147.7087 155.525,147.6747 155.726,147.6077 C155.927,147.5417 156.085,147.4827 156.202,147.4317 L156.202,149.6867 C155.584,150.0377 154.849,150.2117 153.998,150.2117 C153.079,150.2117 152.378,150.0247 151.893,149.6487 C151.409,149.2737 151.126,148.7437 151.042,148.0587 C149.873,149.4947 148.437,150.2117 146.734,150.2117 C145.465,150.2117 144.421,149.9547 143.603,149.4357 C142.785,148.9187 142.376,147.9327 142.376,146.4807 C142.376,145.2947 142.714,144.3887 143.39,143.7627 C144.066,143.1367 145.006,142.7147 146.208,142.4987 C147.41,142.2817 148.964,142.1717 150.867,142.1717 L150.867,141.3207 C150.867,140.7527 150.687,140.2937 150.328,139.9437 Z M160.3094,146.0549 C160.3094,146.6399 160.5684,147.0609 161.0864,147.3199 C161.6034,147.5779 162.2464,147.7079 163.0154,147.7079 C163.6824,147.7079 164.2804,147.6079 164.8054,147.4079 C165.3314,147.2069 165.5944,146.8899 165.5944,146.4549 C165.5944,145.9889 165.3524,145.6539 164.8694,145.4529 C164.3834,145.2529 163.6324,145.0779 162.6144,144.9279 C161.5454,144.7439 160.6684,144.5439 159.9844,144.3259 C159.2994,144.1099 158.7104,143.7339 158.2184,143.1999 C157.7254,142.6649 157.4794,141.9219 157.4794,140.9699 C157.4794,140.1019 157.7344,139.3639 158.2434,138.7529 C158.7524,138.1439 159.4284,137.6849 160.2724,137.3759 C161.1154,137.0669 162.0384,136.9119 163.0394,136.9119 L163.5404,136.9119 C164.4254,136.9119 165.2644,137.0589 166.0584,137.3509 C166.8514,137.6429 167.4904,138.0519 167.9744,138.5779 C168.4584,139.1039 168.7014,139.7009 168.7014,140.3689 C168.7014,140.5029 168.6924,140.6239 168.6754,140.7329 C168.6594,140.8409 168.6504,140.9039 168.6504,140.9199 L165.4444,140.9199 C165.4444,139.9179 164.6764,139.4169 163.1404,139.4169 C162.4394,139.4169 161.8754,139.5179 161.4494,139.7179 C161.0234,139.9179 160.8104,140.1939 160.8104,140.5439 C160.8104,140.9619 161.0394,141.2539 161.4994,141.4209 C161.9584,141.5879 162.6804,141.7459 163.6654,141.8969 C164.7854,142.0809 165.6904,142.2769 166.3834,142.4859 C167.0774,142.6949 167.6824,143.0709 168.2004,143.6129 C168.7174,144.1559 168.9764,144.9189 168.9764,145.9049 C168.9764,147.4239 168.4414,148.5219 167.3724,149.1989 C166.3044,149.8739 164.9434,150.2119 163.2904,150.2119 L162.4634,150.2119 C161.4284,150.2119 160.5014,150.0539 159.6834,149.7369 C158.8654,149.4199 158.2264,148.9689 157.7674,148.3839 C157.3084,147.7999 157.0794,147.1319 157.0794,146.3799 L157.1034,145.8789 L160.3094,145.8789 L160.3094,146.0549 Z M173.8094,146.0549 C173.8094,146.6399 174.0684,147.0609 174.5864,147.3199 C175.1034,147.5779 175.7464,147.7079 176.5154,147.7079 C177.1824,147.7079 177.7804,147.6079 178.3054,147.4079 C178.8314,147.2069 179.0944,146.8899 179.0944,146.4549 C179.0944,145.9889 178.8524,145.6539 178.3694,145.4529 C177.8834,145.2529 177.1324,145.0779 176.1144,144.9279 C175.0454,144.7439 174.1684,144.5439 173.4844,144.3259 C172.7994,144.1099 172.2104,143.7339 171.7184,143.1999 C171.2254,142.6649 170.9794,141.9219 170.9794,140.9699 C170.9794,140.1019 171.2344,139.3639 171.7434,138.7529 C172.2524,138.1439 172.9284,137.6849 173.7724,137.3759 C174.6154,137.0669 175.5384,136.9119 176.5394,136.9119 L177.0404,136.9119 C177.9254,136.9119 178.7644,137.0589 179.5584,137.3509 C180.3514,137.6429 180.9904,138.0519 181.4744,138.5779 C181.9584,139.1039 182.2014,139.7009 182.2014,140.3689 C182.2014,140.5029 182.1924,140.6239 182.1754,140.7329 C182.1594,140.8409 182.1504,140.9039 182.1504,140.9199 L178.9444,140.9199 C178.9444,139.9179 178.1764,139.4169 176.6404,139.4169 C175.9394,139.4169 175.3754,139.5179 174.9494,139.7179 C174.5234,139.9179 174.3104,140.1939 174.3104,140.5439 C174.3104,140.9619 174.5394,141.2539 174.9994,141.4209 C175.4584,141.5879 176.1804,141.7459 177.1654,141.8969 C178.2854,142.0809 179.1904,142.2769 179.8834,142.4859 C180.5774,142.6949 181.1824,143.0709 181.7004,143.6129 C182.2174,144.1559 182.4764,144.9189 182.4764,145.9049 C182.4764,147.4239 181.9414,148.5219 180.8724,149.1989 C179.8044,149.8739 178.4434,150.2119 176.7904,150.2119 L175.9634,150.2119 C174.9284,150.2119 174.0014,150.0539 173.1834,149.7369 C172.3654,149.4199 171.7264,148.9689 171.2674,148.3839 C170.8084,147.7999 170.5794,147.1319 170.5794,146.3799 L170.6034,145.8789 L173.8094,145.8789 L173.8094,146.0549 Z M188.9256,140.1936 C188.4656,140.7116 188.2026,141.3716 188.1366,142.1726 L193.1966,142.1726 C193.1966,141.3206 192.9996,140.6486 192.6076,140.1566 C192.2146,139.6636 191.5846,139.4176 190.7166,139.4176 C189.9816,139.4176 189.3846,139.6756 188.9256,140.1936 Z M196.0756,147.9966 C195.5416,148.7566 194.8366,149.3156 193.9596,149.6736 C193.0826,150.0336 192.1266,150.2126 191.0916,150.2126 L190.6916,150.2126 C189.5056,150.2126 188.4376,149.9626 187.4856,149.4616 C186.5326,148.9606 185.7856,148.2386 185.2426,147.2946 C184.7006,146.3516 184.4296,145.2276 184.4296,143.9256 L184.4296,143.1996 C184.4296,141.9136 184.7046,140.7956 185.2556,139.8426 C185.8076,138.8906 186.5546,138.1656 187.4976,137.6646 C188.4416,137.1636 189.5056,136.9126 190.6916,136.9126 L191.0916,136.9126 C192.1266,136.9126 193.0866,137.1256 193.9726,137.5506 C194.8576,137.9766 195.5676,138.5946 196.1016,139.4046 C196.6356,140.2146 196.9036,141.1706 196.9036,142.2726 L196.9036,144.1756 L188.1366,144.1756 L188.1366,144.7776 C188.1366,145.6126 188.3826,146.3096 188.8756,146.8686 C189.3676,147.4276 190.0396,147.7086 190.8916,147.7086 C191.6586,147.7086 192.2646,147.4956 192.7076,147.0696 C193.1506,146.6436 193.3706,146.0126 193.3706,145.1776 L196.8776,145.1776 C196.8776,146.2976 196.6106,147.2366 196.0756,147.9966 Z M202.7645,139.0413 C203.8165,137.6223 205.1775,136.9123 206.8475,136.9123 C208.1495,136.9123 209.2225,137.2633 210.0655,137.9643 C210.9095,138.6663 211.3305,139.6853 211.3305,141.0203 L211.3305,149.9623 L207.6735,149.9623 L207.6735,141.8213 C207.6735,141.1703 207.4865,140.6323 207.1105,140.2063 C206.7345,139.7803 206.2535,139.5673 205.6695,139.5673 C205.0185,139.5673 204.4585,139.8133 203.9925,140.3063 C203.5245,140.7993 203.2895,141.3953 203.2895,142.0973 L203.2895,149.9623 L199.6335,149.9623 L199.6335,137.1633 L202.3635,137.1633 L202.7645,139.0413 Z" id="Fill-28"></path>
        </g>
    </g>
</svg>